# xmcd
#
# Track frame offsets:
#	150
#	5694
#	33586
#	65391
#	115030
#	148242
#	179910
#	256796
#	303116
#
# Disc length: 4598 seconds
#
# Revision: 0
# Processed by: cddbd v1.5.2PL0 Copyright (c) Steve Scherf et al.
# Submitted via: audiograbber 1.83.01
#
DISCID=7b11f409
DTITLE=Grateful Dead - 93-12-10 Los Angeles Sports Arena, Los Angeles CA
DYEAR=1900
DGENRE=
TTITLE0=Tuning
TTITLE1=Hell In A Bucket
TTITLE2=Loser
TTITLE3=Little Red Rooster
TTITLE4=So Many Roads
TTITLE5=Just Like Tom Thumb's Blues
TTITLE6=Eternity > Bertha
TTITLE7=Scarlet Begonias
TTITLE8=Fire On The Mountain
EXTD=
EXTT0=
EXTT1=
EXTT2=
EXTT3=
EXTT4=
EXTT5=
EXTT6=
EXTT7=
EXTT8=
PLAYORDER=
